<mxfile host="app.diagrams.net" modified="2021-03-21T07:35:22.672Z" agent="5.0 (Macintosh; Intel Mac OS X 10_13_6) AppleWebKit/537.36 (KHTML, like Gecko) Chrome/89.0.4389.90 Safari/537.36" etag="cOstVss7N_efGRSApoCD" version="14.2.7" type="github">
  <diagram id="YXyJghuIVvbqVYUS1TZR" name="Page-1">
    <mxGraphModel dx="946" dy="582" grid="1" gridSize="10" guides="1" tooltips="1" connect="1" arrows="1" fold="1" page="1" pageScale="1" pageWidth="827" pageHeight="1169" math="0" shadow="0">
      <root>
        <mxCell id="0" />
        <mxCell id="1" parent="0" />
        <mxCell id="A1HXEkPYwLulz25Y2JXx-1" value="" style="rounded=0;whiteSpace=wrap;html=1;" vertex="1" parent="1">
          <mxGeometry x="160" y="90" width="440" height="60" as="geometry" />
        </mxCell>
        <mxCell id="A1HXEkPYwLulz25Y2JXx-2" value="" style="rounded=0;whiteSpace=wrap;html=1;" vertex="1" parent="1">
          <mxGeometry x="160" y="210" width="440" height="60" as="geometry" />
        </mxCell>
        <mxCell id="A1HXEkPYwLulz25Y2JXx-9" value="" style="edgeStyle=orthogonalEdgeStyle;rounded=0;orthogonalLoop=1;jettySize=auto;html=1;" edge="1" parent="1" source="A1HXEkPYwLulz25Y2JXx-3" target="A1HXEkPYwLulz25Y2JXx-5">
          <mxGeometry relative="1" as="geometry" />
        </mxCell>
        <mxCell id="A1HXEkPYwLulz25Y2JXx-16" value="json" style="edgeLabel;html=1;align=center;verticalAlign=middle;resizable=0;points=[];" vertex="1" connectable="0" parent="A1HXEkPYwLulz25Y2JXx-9">
          <mxGeometry x="-0.3" y="-2" relative="1" as="geometry">
            <mxPoint as="offset" />
          </mxGeometry>
        </mxCell>
        <mxCell id="A1HXEkPYwLulz25Y2JXx-17" style="rounded=0;orthogonalLoop=1;jettySize=auto;html=1;exitX=1;exitY=0.5;exitDx=0;exitDy=0;entryX=0.5;entryY=0;entryDx=0;entryDy=0;" edge="1" parent="1" source="A1HXEkPYwLulz25Y2JXx-3" target="A1HXEkPYwLulz25Y2JXx-7">
          <mxGeometry relative="1" as="geometry" />
        </mxCell>
        <mxCell id="A1HXEkPYwLulz25Y2JXx-18" value="pb" style="edgeLabel;html=1;align=center;verticalAlign=middle;resizable=0;points=[];" vertex="1" connectable="0" parent="A1HXEkPYwLulz25Y2JXx-17">
          <mxGeometry x="-0.2309" y="-1" relative="1" as="geometry">
            <mxPoint as="offset" />
          </mxGeometry>
        </mxCell>
        <mxCell id="A1HXEkPYwLulz25Y2JXx-3" value="spt" style="rounded=0;whiteSpace=wrap;html=1;fillColor=#d5e8d4;strokeColor=#82b366;" vertex="1" parent="1">
          <mxGeometry x="170" y="100" width="60" height="40" as="geometry" />
        </mxCell>
        <mxCell id="A1HXEkPYwLulz25Y2JXx-8" value="" style="edgeStyle=orthogonalEdgeStyle;rounded=0;orthogonalLoop=1;jettySize=auto;html=1;dashed=1;" edge="1" parent="1" source="A1HXEkPYwLulz25Y2JXx-5" target="A1HXEkPYwLulz25Y2JXx-7">
          <mxGeometry relative="1" as="geometry" />
        </mxCell>
        <mxCell id="A1HXEkPYwLulz25Y2JXx-15" value="转发" style="edgeLabel;html=1;align=center;verticalAlign=middle;resizable=0;points=[];" vertex="1" connectable="0" parent="A1HXEkPYwLulz25Y2JXx-8">
          <mxGeometry x="-0.3" y="1" relative="1" as="geometry">
            <mxPoint as="offset" />
          </mxGeometry>
        </mxCell>
        <mxCell id="A1HXEkPYwLulz25Y2JXx-11" value="" style="edgeStyle=orthogonalEdgeStyle;rounded=0;orthogonalLoop=1;jettySize=auto;html=1;" edge="1" parent="1" source="A1HXEkPYwLulz25Y2JXx-5" target="A1HXEkPYwLulz25Y2JXx-6">
          <mxGeometry relative="1" as="geometry" />
        </mxCell>
        <mxCell id="A1HXEkPYwLulz25Y2JXx-12" value="未迁移接口" style="edgeLabel;html=1;align=center;verticalAlign=middle;resizable=0;points=[];" vertex="1" connectable="0" parent="A1HXEkPYwLulz25Y2JXx-11">
          <mxGeometry x="-0.52" y="3" relative="1" as="geometry">
            <mxPoint x="36" as="offset" />
          </mxGeometry>
        </mxCell>
        <mxCell id="A1HXEkPYwLulz25Y2JXx-5" value="Access" style="rounded=0;whiteSpace=wrap;html=1;fillColor=#d5e8d4;strokeColor=#82b366;" vertex="1" parent="1">
          <mxGeometry x="290" y="100" width="60" height="40" as="geometry" />
        </mxCell>
        <mxCell id="A1HXEkPYwLulz25Y2JXx-6" value="A" style="rounded=0;whiteSpace=wrap;html=1;fillColor=#d5e8d4;strokeColor=#82b366;" vertex="1" parent="1">
          <mxGeometry x="470" y="100" width="80" height="40" as="geometry" />
        </mxCell>
        <mxCell id="A1HXEkPYwLulz25Y2JXx-7" value="Access" style="rounded=0;whiteSpace=wrap;html=1;fillColor=#ffe6cc;strokeColor=#d79b00;" vertex="1" parent="1">
          <mxGeometry x="290" y="220" width="60" height="40" as="geometry" />
        </mxCell>
        <mxCell id="A1HXEkPYwLulz25Y2JXx-10" value="A&#39;&lt;br&gt;(已迁移接口)" style="rounded=0;whiteSpace=wrap;html=1;fillColor=#ffe6cc;strokeColor=#d79b00;" vertex="1" parent="1">
          <mxGeometry x="470" y="220" width="80" height="40" as="geometry" />
        </mxCell>
        <mxCell id="A1HXEkPYwLulz25Y2JXx-14" value="已迁移接口" style="endArrow=classic;html=1;exitX=1;exitY=0.5;exitDx=0;exitDy=0;entryX=0;entryY=0.5;entryDx=0;entryDy=0;dashed=1;" edge="1" parent="1" source="A1HXEkPYwLulz25Y2JXx-7" target="A1HXEkPYwLulz25Y2JXx-10">
          <mxGeometry width="50" height="50" relative="1" as="geometry">
            <mxPoint x="370" y="330" as="sourcePoint" />
            <mxPoint x="440" y="280" as="targetPoint" />
          </mxGeometry>
        </mxCell>
        <mxCell id="A1HXEkPYwLulz25Y2JXx-20" value="pb" style="edgeStyle=none;rounded=0;orthogonalLoop=1;jettySize=auto;html=1;" edge="1" parent="1" source="A1HXEkPYwLulz25Y2JXx-19" target="A1HXEkPYwLulz25Y2JXx-7">
          <mxGeometry relative="1" as="geometry" />
        </mxCell>
        <mxCell id="A1HXEkPYwLulz25Y2JXx-19" value="clb" style="rounded=0;whiteSpace=wrap;html=1;fillColor=#ffe6cc;strokeColor=#d79b00;" vertex="1" parent="1">
          <mxGeometry x="170" y="220" width="60" height="40" as="geometry" />
        </mxCell>
        <mxCell id="A1HXEkPYwLulz25Y2JXx-21" value="TAF" style="text;html=1;strokeColor=none;fillColor=none;align=center;verticalAlign=middle;whiteSpace=wrap;rounded=0;" vertex="1" parent="1">
          <mxGeometry x="340" y="70" width="40" height="20" as="geometry" />
        </mxCell>
        <mxCell id="A1HXEkPYwLulz25Y2JXx-22" value="STKE" style="text;html=1;strokeColor=none;fillColor=none;align=center;verticalAlign=middle;whiteSpace=wrap;rounded=0;" vertex="1" parent="1">
          <mxGeometry x="350" y="280" width="40" height="20" as="geometry" />
        </mxCell>
      </root>
    </mxGraphModel>
  </diagram>
</mxfile>
